# This file uses centimeters as units for non-parametric coordinates.

mtllib windo.mtl
g default
v -3.788026 16.876488 31.921450
v -4.098269 16.876488 31.762300
v -4.098269 16.876488 33.428917
v -3.788026 16.876488 33.269772
v -3.596285 16.876488 32.853115
v -3.596285 16.876488 32.338104
v -3.508152 17.259518 31.313280
v -4.098269 17.259518 31.010565
v -4.098269 17.259518 34.180653
v -3.508152 17.259518 33.877937
v -3.143439 17.259518 33.085415
v -3.143439 17.259518 32.105808
v -3.286043 17.856098 30.830637
v -4.098269 17.856098 30.413984
v -4.098269 17.856098 34.777237
v -3.286042 17.856098 34.360584
v -2.784059 17.856098 33.269772
v -2.784059 17.856098 31.921450
v -3.143439 18.607836 30.520758
v -4.098269 18.607836 30.030954
v -4.098269 18.607836 35.160263
v -3.143439 18.607836 34.670460
v -2.553322 18.607836 33.388134
v -2.553322 18.607836 31.803087
v -3.094302 19.441141 30.413984
v -4.098269 19.441141 29.898970
v -4.098269 19.441141 35.292248
v -3.094302 19.441141 34.777237
v -2.473816 19.441141 33.428917
v -2.473816 19.441141 31.762300
v -3.143439 20.274448 30.520758
v -4.098269 20.274448 30.030954
v -4.098269 20.274448 35.160263
v -3.143439 20.274448 34.670460
v -2.553322 20.274448 33.388134
v -2.553322 20.274448 31.803087
v -3.286043 21.026184 30.830637
v -4.098269 21.026184 30.413984
v -4.098269 21.026184 34.777237
v -3.286042 21.026184 34.360584
v -2.784059 21.026184 33.269772
v -2.784059 21.026184 31.921450
v -3.508152 21.622766 31.313280
v -4.098269 21.622766 31.010565
v -4.098269 21.622766 34.180653
v -3.508152 21.622766 33.877937
v -3.143439 21.622766 33.085415
v -3.143439 21.622766 32.105808
v -3.788026 22.005796 31.921450
v -4.098269 22.005796 31.762300
v -4.098269 22.005796 33.428917
v -3.788026 22.005796 33.269772
v -3.596285 22.005796 32.853115
v -3.596285 22.005796 32.338104
v -4.098269 16.744505 32.595612
v -4.098269 22.137779 32.595612
v -5.804613 23.547190 30.887638
v -5.804613 22.583780 29.445793
v -5.804613 21.141935 28.482382
v -5.804613 19.441162 28.144075
v -5.804613 17.740389 28.482380
v -5.804613 16.298542 29.445789
v -5.804613 15.335133 30.887634
v -5.804613 14.996826 32.588409
v -5.804613 15.335131 34.289181
v -5.804613 16.298542 35.731026
v -5.804613 17.740387 36.694439
v -5.804613 19.441160 37.032742
v -5.804613 21.141932 36.694439
v -5.804613 22.583778 35.731030
v -5.804613 23.547190 34.289181
v -5.804613 23.885494 32.588409
v -3.986550 23.547190 30.887638
v -3.986550 22.583780 29.445793
v -3.986550 21.141935 28.482382
v -3.986550 19.441162 28.144077
v -3.986550 17.740389 28.482380
v -3.986550 16.298542 29.445789
v -3.986550 15.335133 30.887634
v -3.986550 14.996827 32.588409
v -3.986550 15.335131 34.289181
v -3.986550 16.298542 35.731026
v -3.986550 17.740387 36.694439
v -3.986550 19.441160 37.032742
v -3.986550 21.141932 36.694439
v -3.986550 22.583778 35.731030
v -3.986550 23.547188 34.289181
v -3.986550 23.885492 32.588409
v -3.986550 21.867517 31.583380
v -3.986550 21.298216 30.731358
v -3.986550 20.446192 30.162052
v -3.986550 19.441162 29.962139
v -3.986550 18.436131 30.162052
v -3.986550 17.584106 30.731354
v -3.986550 17.014803 31.583378
v -3.986550 16.814890 32.588409
v -3.986550 17.014803 33.593437
v -3.986550 17.584106 34.445461
v -3.986550 18.436129 35.014767
v -3.986550 19.441160 35.214680
v -3.986550 20.446190 35.014767
v -3.986550 21.298214 34.445465
v -3.986550 21.867517 33.593441
v -3.986550 22.067430 32.588409
v -3.986550 23.121674 31.063892
v -3.986550 23.424917 32.588409
v -3.986550 23.121672 34.112926
v -3.986550 22.258102 35.405354
v -3.986550 20.965677 36.268921
v -3.986550 19.441160 36.572166
v -3.986550 17.916641 36.268921
v -3.986550 16.624218 35.405350
v -3.986550 15.760647 34.112926
v -3.986550 15.457402 32.588409
v -3.986550 15.760648 31.063890
v -3.986550 16.624220 29.771465
v -3.986550 17.916643 28.907896
v -3.986550 19.441162 28.604652
v -3.986550 20.965681 28.907898
v -3.986550 22.258104 29.771469
v -3.986550 22.293036 31.407125
v -3.986550 22.528008 32.588409
v -3.986550 22.293036 33.769695
v -3.986550 21.623890 34.771141
v -3.986550 20.622444 35.440285
v -3.986550 19.441160 35.675255
v -3.986550 18.259874 35.440285
v -3.986550 17.258429 34.771141
v -3.986550 16.589285 33.769695
v -3.986550 16.354313 32.588409
v -3.986550 16.589285 31.407124
v -3.986550 17.258430 30.405678
v -3.986550 18.259876 29.736534
v -3.986550 19.441162 29.501562
v -3.986550 20.622446 29.736536
v -3.986550 21.623892 30.405680
v -4.537969 23.121674 31.063892
v -4.537969 23.424917 32.588409
v -4.537970 22.528008 32.588409
v -4.537970 22.293036 31.407125
v -4.537969 23.121672 34.112926
v -4.537970 22.293036 33.769695
v -4.537969 22.258102 35.405354
v -4.537970 21.623890 34.771141
v -4.537969 20.965677 36.268921
v -4.537970 20.622444 35.440285
v -4.537969 19.441160 36.572166
v -4.537970 19.441160 35.675255
v -4.537969 17.916641 36.268921
v -4.537970 18.259874 35.440285
v -4.537969 16.624218 35.405350
v -4.537970 17.258429 34.771141
v -4.537969 15.760647 34.112926
v -4.537970 16.589285 33.769695
v -4.537969 15.457402 32.588409
v -4.537970 16.354313 32.588409
v -4.537969 15.760648 31.063890
v -4.537970 16.589285 31.407124
v -4.537969 16.624220 29.771465
v -4.537970 17.258430 30.405678
v -4.537969 17.916643 28.907896
v -4.537970 18.259876 29.736534
v -4.537969 19.441162 28.604652
v -4.537970 19.441162 29.501562
v -4.537969 20.965681 28.907898
v -4.537970 20.622446 29.736536
v -4.537969 22.258104 29.771469
v -4.537970 21.623892 30.405680
vt 0.328066 0.681930
vt 0.340510 0.668968
vt 0.387120 0.690950
vt 0.358937 0.708644
vt 0.239856 0.672341
vt 0.253108 0.684498
vt 0.223959 0.712932
vt 0.194780 0.696952
vt 0.277225 0.689613
vt 0.267377 0.718032
vt 0.304290 0.688447
vt 0.315880 0.716284
vt 0.423906 0.726496
vt 0.381988 0.741920
vt 0.202958 0.747458
vt 0.160234 0.734527
vt 0.260504 0.750599
vt 0.324717 0.748566
vt 0.447106 0.771075
vt 0.396654 0.780226
vt 0.190625 0.786536
vt 0.139744 0.780342
vt 0.256725 0.787059
vt 0.330693 0.784873
vt 0.454936 0.819869
vt 0.402680 0.821386
vt 0.187084 0.827967
vt 0.134828 0.829484
vt 0.256073 0.825815
vt 0.333691 0.823538
vt 0.450019 0.869011
vt 0.399139 0.862817
vt 0.193109 0.869127
vt 0.142657 0.878278
vt 0.259070 0.864480
vt 0.333038 0.862294
vt 0.429529 0.914827
vt 0.386805 0.901895
vt 0.207775 0.907433
vt 0.165857 0.922857
vt 0.265046 0.900787
vt 0.329259 0.898754
vt 0.394983 0.952401
vt 0.365804 0.936421
vt 0.230826 0.940709
vt 0.202643 0.958403
vt 0.273883 0.933069
vt 0.322386 0.931321
vt 0.349907 0.977012
vt 0.336655 0.964856
vt 0.261697 0.967423
vt 0.249253 0.980385
vt 0.285474 0.960906
vt 0.312538 0.959740
vt 0.289810 0.662359
vt 0.299952 0.986994
vt 0.567564 0.466051
vt 0.594329 0.495009
vt 0.603605 0.416416
vt 0.639414 0.432927
vt 0.617907 0.356768
vt 0.657308 0.358317
vt 0.608294 0.296186
vt 0.645288 0.282538
vt 0.576229 0.243896
vt 0.605184 0.217129
vt 0.526595 0.207856
vt 0.543104 0.172046
vt 0.466949 0.193553
vt 0.468497 0.154152
vt 0.406369 0.203165
vt 0.392722 0.166170
vt 0.354080 0.235228
vt 0.683447 0.589044
vt 0.575256 0.656092
vt 0.544715 0.577617
vt 0.625194 0.528234
vt 0.757737 0.485689
vt 0.680645 0.451809
vt 0.786816 0.361775
vt 0.702627 0.359982
vt 0.766260 0.236170
vt 0.687793 0.266733
vt 0.699204 0.127996
vt 0.638406 0.186261
vt 0.595858 0.053718
vt 0.561983 0.130814
vt 0.471956 0.024642
vt 0.470161 0.108833
vt 0.346361 0.045193
vt 0.376918 0.123664
vt 0.238191 0.112241
vt 0.296449 0.173047
vt 0.163911 0.215578
vt 0.241002 0.249464
vt 0.134828 0.339474
vt 0.219019 0.341282
vt 0.155369 0.465070
vt 0.233845 0.434525
vt 0.222409 0.573247
vt 0.283224 0.514999
vt 0.325745 0.647537
vt 0.359641 0.570451
vt 0.449647 0.676630
vt 0.451464 0.592441
vt 0.551531 0.448913
vt 0.507018 0.476144
vt 0.500101 0.457424
vt 0.537977 0.434265
vt 0.582233 0.406719
vt 0.564106 0.398373
vt 0.594452 0.355988
vt 0.574510 0.355215
vt 0.586326 0.304442
vt 0.567607 0.311360
vt 0.559093 0.259930
vt 0.544446 0.273485
vt 0.516899 0.229228
vt 0.508554 0.247356
vt 0.466169 0.217008
vt 0.465396 0.236950
vt 0.414625 0.225133
vt 0.421543 0.243853
vt 0.370114 0.252365
vt 0.383669 0.267013
vt 0.339413 0.294557
vt 0.357541 0.302903
vt 0.327195 0.345286
vt 0.347136 0.346061
vt 0.335319 0.396830
vt 0.354038 0.389914
vt 0.362549 0.441342
vt 0.377198 0.427789
vt 0.404741 0.472046
vt 0.413088 0.453919
vt 0.455472 0.484267
vt 0.456247 0.464325
vt 0.452300 0.571463
vt 0.537458 0.557916
vt 0.368441 0.551390
vt 0.298649 0.500756
vt 0.253546 0.427269
vt 0.239997 0.342117
vt 0.260065 0.258262
vt 0.310694 0.188470
vt 0.384177 0.143364
vt 0.469329 0.129811
vt 0.553187 0.149877
vt 0.622984 0.200507
vt 0.668094 0.273993
vt 0.681648 0.359149
vt 0.661582 0.443012
vt 0.610950 0.512810
vt 0.528916 0.535109
vt 0.453137 0.547123
vt 0.454690 0.507722
vt 0.515272 0.498113
vt 0.378529 0.529223
vt 0.395043 0.493416
vt 0.316451 0.484136
vt 0.345411 0.457375
vt 0.276353 0.418727
vt 0.313349 0.405084
vt 0.264337 0.342952
vt 0.303739 0.344505
vt 0.282233 0.268348
vt 0.318042 0.284860
vt 0.327315 0.206271
vn 0.377736 -0.875901 -0.300188
vn 0.205322 -0.893107 -0.400253
vn 0.313043 -0.727736 -0.610249
vn 0.544199 -0.701743 -0.459787
vn 0.205322 -0.893107 0.400254
vn 0.377736 -0.875901 0.300189
vn 0.544198 -0.701744 0.459787
vn 0.313041 -0.727738 0.610248
vn 0.542225 -0.834211 0.100420
vn 0.761541 -0.629956 0.152352
vn 0.542226 -0.834210 -0.100421
vn 0.761542 -0.629955 -0.152352
vn 0.393686 -0.505987 -0.767455
vn 0.660731 -0.480367 -0.576786
vn 0.660730 -0.480367 0.576787
vn 0.393686 -0.505986 0.767457
vn 0.894044 -0.408183 0.184585
vn 0.894044 -0.408184 -0.184585
vn 0.440999 -0.257806 -0.859684
vn 0.725884 -0.242323 -0.643717
vn 0.725885 -0.242322 0.643717
vn 0.440999 -0.257806 0.859684
vn 0.959281 -0.198929 0.200516
vn 0.959281 -0.198929 -0.200516
vn 0.456428 0.000000 -0.889761
vn 0.746640 0.000000 -0.665228
vn 0.746640 0.000000 0.665228
vn 0.456429 0.000000 0.889760
vn 0.978708 0.000000 0.205256
vn 0.978708 0.000000 -0.205257
vn 0.440998 0.257807 -0.859684
vn 0.725884 0.242323 -0.643717
vn 0.725885 0.242322 0.643717
vn 0.440999 0.257806 0.859684
vn 0.959281 0.198929 0.200516
vn 0.959281 0.198929 -0.200516
vn 0.393685 0.505988 -0.767456
vn 0.660730 0.480368 -0.576786
vn 0.660730 0.480367 0.576787
vn 0.393685 0.505987 0.767457
vn 0.894044 0.408184 0.184585
vn 0.894044 0.408184 -0.184585
vn 0.313043 0.727736 -0.610249
vn 0.544200 0.701742 -0.459788
vn 0.544198 0.701743 0.459788
vn 0.313041 0.727738 0.610249
vn 0.761542 0.629955 0.152352
vn 0.761542 0.629954 -0.152352
vn 0.205322 0.893107 -0.400253
vn 0.377736 0.875901 -0.300189
vn 0.377736 0.875901 0.300190
vn 0.205322 0.893107 0.400254
vn 0.542225 0.834211 0.100421
vn 0.542226 0.834210 -0.100421
vn 0.187974 -0.982174 -0.000001
vn 0.187974 0.982174 0.000001
vn 0.000000 0.707107 -0.707106
vn 0.000000 0.923880 -0.382683
vn 0.205686 0.904125 -0.374501
vn 0.205686 0.691988 -0.691987
vn 0.000000 0.382684 -0.923879
vn 0.205686 0.374501 -0.904125
vn 0.000000 0.000001 -1.000000
vn 0.205686 0.000001 -0.978618
vn 0.000000 -0.382683 -0.923880
vn 0.205686 -0.374500 -0.904125
vn 0.000000 -0.707107 -0.707107
vn 0.205687 -0.691987 -0.691988
vn 0.000000 -0.923880 -0.382684
vn 0.205687 -0.904125 -0.374501
vn 0.000000 -1.000000 -0.000001
vn 0.205686 -0.978618 -0.000001
vn 0.000000 -0.923879 0.382684
vn 0.205686 -0.904125 0.374501
vn 0.000000 -0.707107 0.707106
vn 0.205687 -0.691988 0.691987
vn 0.000000 -0.382684 0.923879
vn 0.205687 -0.374501 0.904125
vn 0.000000 -0.000000 1.000000
vn 0.205687 -0.000000 0.978618
vn 0.000000 0.382683 0.923880
vn 0.205687 0.374500 0.904125
vn 0.000001 0.707107 0.707106
vn 0.205687 0.691988 0.691987
vn 0.000001 0.923880 0.382683
vn 0.205688 0.904125 0.374501
vn 0.000001 1.000000 0.000001
vn 0.205687 0.978618 0.000001
vn 0.560226 0.585725 -0.585725
vn 0.560227 0.765286 -0.316992
vn 1.000000 -0.000001 0.000000
vn 1.000000 -0.000001 0.000001
vn 0.560228 0.316992 -0.765285
vn 1.000000 -0.000000 0.000001
vn 0.560227 0.000001 -0.828339
vn 1.000000 0.000000 0.000001
vn 0.560227 -0.316991 -0.765286
vn 1.000000 0.000001 0.000001
vn 0.560226 -0.585724 -0.585725
vn 1.000000 0.000001 0.000001
vn 0.560226 -0.765286 -0.316992
vn 1.000000 0.000002 0.000000
vn 0.560228 -0.828339 0.000000
vn 1.000000 0.000002 -0.000000
vn 0.560229 -0.765285 0.316990
vn 1.000000 0.000001 -0.000000
vn 0.560230 -0.585723 0.585723
vn 1.000000 0.000001 -0.000001
vn 0.560230 -0.316990 0.765284
vn 1.000000 0.000000 -0.000001
vn 0.560229 0.000000 0.828338
vn 1.000000 0.000000 -0.000001
vn 0.560227 0.316991 0.765286
vn 1.000000 -0.000000 -0.000001
vn 0.560226 0.585725 0.585725
vn 1.000000 -0.000001 -0.000001
vn 0.560227 0.765286 0.316992
vn 1.000000 -0.000002 -0.000000
vn 0.560228 0.828339 0.000000
vn 1.000000 -0.000001 0.000000
vn 0.704968 -0.709239 -0.000000
vn 0.704968 -0.655251 0.271413
vn 0.704968 -0.655251 -0.271414
vn 0.704970 -0.501506 -0.501506
vn 0.704969 -0.271413 -0.655250
vn 0.704969 0.000000 -0.709238
vn 0.704970 0.271414 -0.655250
vn 0.704969 0.501507 -0.501507
vn 0.704969 0.655251 -0.271414
vn 0.704969 0.709238 0.000000
vn 0.704969 0.655250 0.271414
vn 0.704969 0.501507 0.501507
vn 0.704969 0.271413 0.655251
vn 0.704968 -0.000000 0.709239
vn 0.704969 -0.271414 0.655251
vn 0.704968 -0.501508 0.501507
vn 0.784012 -0.573495 0.237549
vn 0.784012 -0.620746 -0.000000
vn 0.902519 0.430650 0.000000
vn 0.902519 0.397870 -0.164803
vn 0.784012 -0.573494 -0.237549
vn 0.902519 0.397869 0.164803
vn 0.784011 -0.438934 -0.438934
vn 0.902519 0.304516 0.304516
vn 0.784011 -0.237549 -0.573495
vn 0.902519 0.164803 0.397870
vn 0.784012 -0.000000 -0.620746
vn 0.902519 -0.000000 0.430651
vn 0.784011 0.237550 -0.573495
vn 0.902519 -0.164802 0.397870
vn 0.784011 0.438934 -0.438934
vn 0.902518 -0.304516 0.304516
vn 0.784011 0.573495 -0.237550
vn 0.902519 -0.397870 0.164803
vn 0.784012 0.620746 0.000000
vn 0.902519 -0.430651 0.000000
vn 0.784012 0.573495 0.237550
vn 0.902519 -0.397869 -0.164803
vn 0.784012 0.438933 0.438934
vn 0.902519 -0.304516 -0.304516
vn 0.784012 0.237549 0.573495
vn 0.902519 -0.164803 -0.397869
vn 0.784012 -0.000000 0.620746
vn 0.902519 0.000001 -0.430650
vn 0.784012 -0.237549 0.573494
vn 0.902519 0.164803 -0.397869
vn 0.784012 -0.438934 0.438933
vn 0.902519 0.304516 -0.304516
s 1
g pSphere2
usemtl initialShadingGroup
f 1/1/1 2/2/2 8/3/3 7/4/4
f 3/5/5 4/6/6 10/7/7 9/8/8
f 4/6/6 5/9/9 11/10/10 10/7/7
f 5/9/9 6/11/11 12/12/12 11/10/10
f 6/11/11 1/1/1 7/4/4 12/12/12
f 7/4/4 8/3/3 14/13/13 13/14/14
f 9/8/8 10/7/7 16/15/15 15/16/16
f 10/7/7 11/10/10 17/17/17 16/15/15
f 11/10/10 12/12/12 18/18/18 17/17/17
f 12/12/12 7/4/4 13/14/14 18/18/18
f 13/14/14 14/13/13 20/19/19 19/20/20
f 15/16/16 16/15/15 22/21/21 21/22/22
f 16/15/15 17/17/17 23/23/23 22/21/21
f 17/17/17 18/18/18 24/24/24 23/23/23
f 18/18/18 13/14/14 19/20/20 24/24/24
f 19/20/20 20/19/19 26/25/25 25/26/26
f 21/22/22 22/21/21 28/27/27 27/28/28
f 22/21/21 23/23/23 29/29/29 28/27/27
f 23/23/23 24/24/24 30/30/30 29/29/29
f 24/24/24 19/20/20 25/26/26 30/30/30
f 25/26/26 26/25/25 32/31/31 31/32/32
f 27/28/28 28/27/27 34/33/33 33/34/34
f 28/27/27 29/29/29 35/35/35 34/33/33
f 29/29/29 30/30/30 36/36/36 35/35/35
f 30/30/30 25/26/26 31/32/32 36/36/36
f 31/32/32 32/31/31 38/37/37 37/38/38
f 33/34/34 34/33/33 40/39/39 39/40/40
f 34/33/33 35/35/35 41/41/41 40/39/39
f 35/35/35 36/36/36 42/42/42 41/41/41
f 36/36/36 31/32/32 37/38/38 42/42/42
f 37/38/38 38/37/37 44/43/43 43/44/44
f 39/40/40 40/39/39 46/45/45 45/46/46
f 40/39/39 41/41/41 47/47/47 46/45/45
f 41/41/41 42/42/42 48/48/48 47/47/47
f 42/42/42 37/38/38 43/44/44 48/48/48
f 43/44/44 44/43/43 50/49/49 49/50/50
f 45/46/46 46/45/45 52/51/51 51/52/52
f 46/45/45 47/47/47 53/53/53 52/51/51
f 47/47/47 48/48/48 54/54/54 53/53/53
f 48/48/48 43/44/44 49/50/50 54/54/54
f 2/2/2 1/1/1 55/55/55
f 4/6/6 3/5/5 55/55/55
f 5/9/9 4/6/6 55/55/55
f 6/11/11 5/9/9 55/55/55
f 1/1/1 6/11/11 55/55/55
f 49/50/50 50/49/49 56/56/56
f 51/52/52 52/51/51 56/56/56
f 52/51/51 53/53/53 56/56/56
f 53/53/53 54/54/54 56/56/56
f 54/54/54 49/50/50 56/56/56
s 3
f 58/74/57 57/75/58 73/76/59 74/77/60
f 59/78/61 58/74/57 74/77/60 75/79/62
f 60/80/63 59/78/61 75/79/62 76/81/64
f 61/82/65 60/80/63 76/81/64 77/83/66
f 62/84/67 61/82/65 77/83/66 78/85/68
f 63/86/69 62/84/67 78/85/68 79/87/70
f 64/88/71 63/86/69 79/87/70 80/89/72
f 65/90/73 64/88/71 80/89/72 81/91/74
f 66/92/75 65/90/73 81/91/74 82/93/76
f 67/94/77 66/92/75 82/93/76 83/95/78
f 68/96/79 67/94/77 83/95/78 84/97/80
f 69/98/81 68/96/79 84/97/80 85/99/82
f 70/100/83 69/98/81 85/99/82 86/101/84
f 71/102/85 70/100/83 86/101/84 87/103/86
f 72/104/87 71/102/85 87/103/86 88/105/88
f 57/75/58 72/104/87 88/105/88 73/76/59
f 136/106/89 121/107/90 89/108/91 90/109/92
f 135/110/93 136/106/89 90/109/92 91/111/94
f 134/112/95 135/110/93 91/111/94 92/113/96
f 133/114/97 134/112/95 92/113/96 93/115/98
f 132/116/99 133/114/97 93/115/98 94/117/100
f 131/118/101 132/116/99 94/117/100 95/119/102
f 130/120/103 131/118/101 95/119/102 96/121/104
f 129/122/105 130/120/103 96/121/104 97/123/106
f 128/124/107 129/122/105 97/123/106 98/125/108
f 127/126/109 128/124/107 98/125/108 99/127/110
f 126/128/111 127/126/109 99/127/110 100/129/112
f 125/130/113 126/128/111 100/129/112 101/131/114
f 124/132/115 125/130/113 101/131/114 102/133/116
f 123/134/117 124/132/115 102/133/116 103/135/118
f 122/136/119 123/134/117 103/135/118 104/137/120
f 121/107/90 122/136/119 104/137/120 89/108/91
f 73/76/59 88/105/88 106/138/121 105/139/122
f 88/105/88 87/103/86 107/140/123 106/138/121
f 87/103/86 86/101/84 108/141/124 107/140/123
f 86/101/84 85/99/82 109/142/125 108/141/124
f 85/99/82 84/97/80 110/143/126 109/142/125
f 84/97/80 83/95/78 111/144/127 110/143/126
f 83/95/78 82/93/76 112/145/128 111/144/127
f 82/93/76 81/91/74 113/146/129 112/145/128
f 81/91/74 80/89/72 114/147/130 113/146/129
f 80/89/72 79/87/70 115/148/131 114/147/130
f 79/87/70 78/85/68 116/149/132 115/148/131
f 78/85/68 77/83/66 117/150/133 116/149/132
f 77/83/66 76/81/64 118/151/134 117/150/133
f 76/81/64 75/79/62 119/152/135 118/151/134
f 75/79/62 74/77/60 120/153/136 119/152/135
f 74/77/60 73/76/59 105/139/122 120/153/136
f 137/154/137 138/155/138 139/156/139 140/157/140
f 138/155/138 141/158/141 142/159/142 139/156/139
f 141/158/141 143/160/143 144/161/144 142/159/142
f 143/160/143 145/162/145 146/163/146 144/161/144
f 145/162/145 147/164/147 148/165/148 146/163/146
f 147/164/147 149/166/149 150/167/150 148/165/148
f 149/166/149 151/168/151 152/73/152 150/167/150
f 151/168/151 153/72/153 154/71/154 152/73/152
f 153/72/153 155/70/155 156/69/156 154/71/154
f 155/70/155 157/68/157 158/67/158 156/69/156
f 157/68/157 159/66/159 160/65/160 158/67/158
f 159/66/159 161/64/161 162/63/162 160/65/160
f 161/64/161 163/62/163 164/61/164 162/63/162
f 163/62/163 165/60/165 166/59/166 164/61/164
f 165/60/165 167/58/167 168/57/168 166/59/166
f 167/58/167 137/154/137 140/157/140 168/57/168
f 105/139/122 106/138/121 138/155/138 137/154/137
f 122/136/119 121/107/90 140/157/140 139/156/139
f 106/138/121 107/140/123 141/158/141 138/155/138
f 123/134/117 122/136/119 139/156/139 142/159/142
f 107/140/123 108/141/124 143/160/143 141/158/141
f 124/132/115 123/134/117 142/159/142 144/161/144
f 108/141/124 109/142/125 145/162/145 143/160/143
f 125/130/113 124/132/115 144/161/144 146/163/146
f 109/142/125 110/143/126 147/164/147 145/162/145
f 126/128/111 125/130/113 146/163/146 148/165/148
f 110/143/126 111/144/127 149/166/149 147/164/147
f 127/126/109 126/128/111 148/165/148 150/167/150
f 111/144/127 112/145/128 151/168/151 149/166/149
f 128/124/107 127/126/109 150/167/150 152/73/152
f 112/145/128 113/146/129 153/72/153 151/168/151
f 129/122/105 128/124/107 152/73/152 154/71/154
f 113/146/129 114/147/130 155/70/155 153/72/153
f 130/120/103 129/122/105 154/71/154 156/69/156
f 114/147/130 115/148/131 157/68/157 155/70/155
f 131/118/101 130/120/103 156/69/156 158/67/158
f 115/148/131 116/149/132 159/66/159 157/68/157
f 132/116/99 131/118/101 158/67/158 160/65/160
f 116/149/132 117/150/133 161/64/161 159/66/159
f 133/114/97 132/116/99 160/65/160 162/63/162
f 117/150/133 118/151/134 163/62/163 161/64/161
f 134/112/95 133/114/97 162/63/162 164/61/164
f 118/151/134 119/152/135 165/60/165 163/62/163
f 135/110/93 134/112/95 164/61/164 166/59/166
f 119/152/135 120/153/136 167/58/167 165/60/165
f 136/106/89 135/110/93 166/59/166 168/57/168
f 120/153/136 105/139/122 137/154/137 167/58/167
f 121/107/90 136/106/89 168/57/168 140/157/140
