# This file uses centimeters as units for non-parametric coordinates.

mtllib holographic_plat.mtl
g default
v -11.784005 0.006222 3.036641
v -11.239141 -0.111789 3.036640
v -11.437488 0.006222 3.405073
v -11.522800 0.309099 3.638809
v -11.871900 0.309099 3.500354
v -12.016500 0.309099 3.036642
v 11.784005 0.006222 3.036641
v 12.016500 0.309099 3.036642
v 11.871900 0.309099 3.500354
v 11.522800 0.309099 3.638809
v 11.437488 0.006222 3.405073
v 11.239141 -0.111789 3.036640
v -11.871900 0.614236 3.036642
v -11.437488 0.611977 3.405073
v -11.239141 0.729987 3.036640
v 11.784005 0.611977 3.036641
v 11.239141 0.729987 3.036640
v 11.437488 0.611977 3.405073
v -11.871900 0.309099 -3.500354
v -12.016500 0.309099 -3.036642
v -11.871900 0.614236 -3.036642
v -11.239141 0.729987 -3.036640
v -11.437488 0.611977 -3.405073
v -11.522800 0.309099 -3.638809
v 11.871900 0.309099 -3.500354
v 11.522800 0.309099 -3.638809
v 11.437488 0.611977 -3.405073
v 11.239141 0.729987 -3.036640
v 11.784005 0.611977 -3.036641
v 12.016500 0.309099 -3.036642
v -11.784005 0.006222 -3.036641
v -11.437488 0.006222 -3.405073
v -11.239141 -0.111789 -3.036640
v 11.784005 0.006222 -3.036641
v 11.239141 -0.111789 -3.036640
v 11.437488 0.006222 -3.405073
v -11.720319 0.061879 3.345312
v 11.720319 0.061879 3.345312
v -11.720319 0.556319 3.345312
v 11.720319 0.556319 3.345312
v -11.720319 0.556319 -3.345312
v 11.720319 0.556319 -3.345312
v -11.720319 0.061879 -3.345312
v 11.720319 0.061879 -3.345312
vt 0.904818 0.034662
vt 0.913306 0.035270
vt 0.913295 0.491273
vt 0.904849 0.491859
vt 0.921474 0.038029
vt 0.862996 0.489827
vt 0.854514 0.489176
vt 0.857667 0.033166
vt 0.866116 0.032641
vt 0.846358 0.486351
vt 0.849525 0.035865
vt 0.879593 0.486571
vt 0.921419 0.488515
vt 0.888238 0.038026
vt 0.871449 0.489280
vt 0.896371 0.035251
vt 0.896364 0.491272
vt 0.888199 0.488523
vt 0.904869 0.029131
vt 0.904926 0.020018
vt 0.915114 0.024762
vt 0.911173 0.029580
vt 0.915094 0.501750
vt 0.911157 0.496946
vt 0.904879 0.506424
vt 0.904851 0.497360
vt 0.895450 0.023311
vt 0.898581 0.029482
vt 0.894633 0.501787
vt 0.898538 0.496954
vt 0.015826 0.539306
vt 0.142224 0.539614
vt 0.874597 0.033289
vt 0.882744 0.036096
vt 0.863010 0.495358
vt 0.856719 0.494970
vt 0.863058 0.504471
vt 0.853584 0.501148
vt 0.855944 0.022676
vt 0.866192 0.018076
vt 0.866154 0.027139
vt 0.859846 0.027508
vt 0.873249 0.499763
vt 0.869310 0.494946
vt 0.876405 0.022787
vt 0.872464 0.027592
vt 0.143509 0.012758
vt 0.014733 0.987242
vt 0.015873 0.519804
vt 0.015853 0.528120
vt 0.142252 0.528428
vt 0.142272 0.520112
vt 0.017063 0.031952
vt 0.143462 0.032261
vt 0.015921 0.500301
vt 0.015894 0.511488
vt 0.142292 0.511796
vt 0.142319 0.500610
vt 0.017014 0.052366
vt 0.143412 0.052674
vt 0.017045 0.039483
vt 0.143443 0.039791
vt 0.141132 0.987550
vt 0.143482 0.023944
vt 0.017084 0.023636
vt 0.017111 0.012450
vn -0.004897 -0.999723 0.023005
vn -0.478381 -0.878087 0.010737
vn -0.478380 -0.878087 -0.010737
vn -0.004897 -0.999723 -0.023005
vn -0.990167 -0.138662 0.018501
vn -0.990167 -0.138662 -0.018501
vn -0.005192 0.000000 0.999987
vn -0.004195 -0.778815 0.627240
vn 0.004195 -0.778815 0.627240
vn 0.005192 -0.000000 0.999987
vn 0.004897 -0.999723 0.023005
vn 0.999875 -0.000000 0.015790
vn 0.478381 -0.878087 0.010737
vn 0.478380 -0.878087 -0.010737
vn 0.999875 0.000000 -0.015790
vn 0.004897 -0.999723 -0.023005
vn -0.479808 0.877274 0.013213
vn -0.479808 0.877274 -0.013213
vn -0.004788 0.999725 0.022960
vn -0.004788 0.999725 -0.022960
vn -0.004164 0.778917 0.627113
vn 0.004195 0.778815 0.627240
vn 0.004897 0.999723 0.023005
vn 0.478380 0.878087 0.010737
vn 0.478380 0.878087 -0.010737
vn 0.004897 0.999723 -0.023005
vn -0.005192 -0.000000 -0.999987
vn -0.004164 0.778917 -0.627113
vn 0.004195 0.778815 -0.627240
vn 0.005192 0.000000 -0.999987
vn -0.004195 -0.778815 -0.627240
vn 0.004195 -0.778815 -0.627240
vn -0.731803 -0.035597 0.680586
vn -0.460866 -0.791884 0.400653
vn 0.460866 -0.791884 0.400653
vn 0.746638 -0.000000 0.665230
vn -0.431649 0.789138 0.436967
vn 0.460866 0.791884 0.400653
vn -0.731803 -0.035598 -0.680585
vn -0.431650 0.789138 -0.436967
vn 0.746638 0.000000 -0.665230
vn 0.460866 0.791884 -0.400653
vn -0.460866 -0.791884 -0.400653
vn 0.460866 -0.791884 -0.400653
s 1
g pCube1
usemtl initialShadingGroup
f 2/47/1 1/64/2 31/65/3 33/66/4
f 1/64/2 6/54/5 20/53/6 31/65/3
f 4/1/7 3/2/8 11/3/9 10/4/10
f 3/2/8 2/5/1 12/13/11 11/3/9
f 8/52/12 7/51/13 34/50/14 30/49/15
f 7/51/13 12/32/11 35/31/16 34/50/14
f 6/54/5 13/62/17 21/61/18 20/53/6
f 13/62/17 15/60/19 22/59/20 21/61/18
f 15/14/19 14/16/21 18/17/22 17/18/23
f 14/16/21 4/1/7 10/4/10 18/17/22
f 17/58/23 16/57/24 29/56/25 28/55/26
f 16/57/24 8/52/12 30/49/15 29/56/25
f 24/6/27 23/7/28 27/8/29 26/9/30
f 23/7/28 22/10/20 28/11/26 27/8/29
f 33/12/4 32/15/31 36/33/32 35/34/16
f 32/15/31 24/6/27 26/9/30 36/33/32
f 15/60/19 17/58/23 28/55/26 22/59/20
f 33/48/4 35/31/16 12/32/11 2/63/1
f 5/19/33 6/20/5 1/21/2 37/22/34
f 1/21/2 2/5/1 3/2/8 37/22/34
f 3/2/8 4/1/7 5/19/33 37/22/34
f 11/3/9 12/13/11 7/23/13 38/24/35
f 7/23/13 8/25/12 9/26/36 38/24/35
f 9/26/36 10/4/10 11/3/9 38/24/35
f 14/16/21 15/14/19 13/27/17 39/28/37
f 13/27/17 6/20/5 5/19/33 39/28/37
f 5/19/33 4/1/7 14/16/21 39/28/37
f 9/26/36 8/25/12 16/29/24 40/30/38
f 16/29/24 17/18/23 18/17/22 40/30/38
f 18/17/22 10/4/10 9/26/36 40/30/38
f 23/7/28 24/6/27 19/35/39 41/36/40
f 19/35/39 20/37/6 21/38/18 41/36/40
f 21/38/18 22/10/20 23/7/28 41/36/40
f 29/39/25 30/40/15 25/41/41 42/42/42
f 25/41/41 26/9/30 27/8/29 42/42/42
f 27/8/29 28/11/26 29/39/25 42/42/42
f 32/15/31 33/12/4 31/43/3 43/44/43
f 31/43/3 20/37/6 19/35/39 43/44/43
f 19/35/39 24/6/27 32/15/31 43/44/43
f 25/41/41 30/40/15 34/45/14 44/46/44
f 34/45/14 35/34/16 36/33/32 44/46/44
f 36/33/32 26/9/30 25/41/41 44/46/44
