# This file uses centimeters as units for non-parametric coordinates.

mtllib corridor.mtl
g default
v -219.339300 57.515052 20.909382
v -11.486663 57.515052 20.909382
v -219.339300 100.737191 20.909382
v -11.486663 100.737191 20.909382
v -219.339300 100.737191 -20.884109
v -11.486663 100.737191 -20.884109
v -219.339300 57.515052 -20.884109
v -11.486663 57.515052 -20.884109
v -235.332923 100.737191 17.728043
v -248.891725 100.737191 8.668343
v -257.951393 100.737191 -4.890437
v -261.132754 100.737191 -20.884109
v -235.332923 57.515052 17.728043
v -248.891725 57.515052 8.668343
v -257.951393 57.515052 -4.890437
v -261.132754 57.515052 -20.884109
v -219.339300 100.737191 -97.824495
v -219.339300 57.515052 -97.824495
v -261.132754 100.737191 -97.824495
v -261.132754 57.515052 -97.824495
vt 0.660562 0.126724
vt 0.164710 0.605639
vt 0.212193 0.129181
vt 0.297432 0.129170
vt 0.297490 0.553092
vt 0.212250 0.553104
vt 0.745202 0.127282
vt 0.742425 0.548224
vt 0.657785 0.547666
vt 0.738973 0.094850
vt 0.720806 0.067269
vt 0.218677 0.096561
vt 0.237151 0.068905
vt 0.264802 0.050423
vt 0.297420 0.043930
vt 0.454343 0.043909
vt 0.693468 0.048741
vt 0.661121 0.042084
vt 0.504743 0.125696
vt 0.505301 0.041056
vt 0.791939 0.957872
vt 0.454355 0.129148
vt 0.937069 0.052375
vt 0.929537 0.959015
vt 0.046239 0.605959
vt 0.044700 0.036238
vt 0.163172 0.035918
vt 0.164831 0.650336
vt 0.046360 0.650656
vt 0.164952 0.695033
vt 0.046481 0.695354
vt 0.165073 0.739731
vt 0.046601 0.740051
vt 0.165193 0.784428
vt 0.046722 0.784748
vt 0.165763 0.995320
vt 0.047292 0.995640
vt 0.799471 0.051232
vt 0.797436 0.296172
vt 0.935034 0.297315
vn 0.014211 0.000000 -0.999899
vn 0.014211 0.000000 -0.999899
vn 0.000000 0.000000 -1.000000
vn 0.000000 0.000000 -1.000000
vn 0.000000 -1.000000 0.000000
vn 0.000000 -1.000000 0.000000
vn 0.000000 -1.000000 0.000000
vn 0.000000 -1.000000 0.000000
vn 0.000000 0.000000 1.000000
vn 0.000000 0.000000 1.000000
vn 0.000000 0.000000 1.000000
vn 0.000000 0.000000 1.000000
vn 0.000000 1.000000 -0.000000
vn 0.000000 1.000000 0.000000
vn 0.000000 1.000000 0.000000
vn 0.000000 1.000000 0.000000
vn 0.000000 -1.000000 0.000000
vn 0.000000 -1.000000 0.000000
vn 0.000000 -1.000000 0.000000
vn 0.000000 -1.000000 0.000000
vn 0.382684 0.000000 -0.923879
vn 0.382684 0.000000 -0.923879
vn 0.707107 0.000000 -0.707107
vn 0.707107 0.000000 -0.707107
vn 0.923880 0.000000 -0.382684
vn 0.923880 0.000000 -0.382684
vn 0.999415 0.000000 -0.034212
vn 0.999415 0.000000 -0.034212
vn 0.000000 1.000000 -0.000000
vn 0.000000 1.000000 0.000000
vn 0.000000 1.000000 -0.000000
vn 0.000000 1.000000 -0.000000
vn -1.000000 0.000000 0.000000
vn -1.000000 0.000000 0.000000
vn -1.000000 0.000000 0.000000
vn -1.000000 0.000000 0.000000
vn 0.000000 -1.000000 0.000000
vn 0.000000 -1.000000 0.000000
vn 1.000000 0.000000 0.000000
vn 1.000000 0.000000 0.000000
vn 0.000000 1.000000 0.000000
vn 0.000000 1.000000 0.000000
s 1
g pCube1
usemtl initialShadingGroup
f 1/2/1 3/25/2 4/26/3 2/27/4
s 2
f 3/3/5 5/4/6 6/5/7 4/6/8
s off
f 5/39/9 7/40/10 8/24/11 6/21/12
s 3
f 7/1/13 1/7/14 2/8/15 8/9/16
s 2
f 5/4/6 3/3/5 9/12/17
f 5/4/6 9/12/17 10/13/18
f 5/4/6 10/13/18 11/14/19
f 5/4/6 11/14/19 12/15/20
s 1
f 3/25/2 1/2/1 13/28/21 9/29/22
f 9/29/22 13/28/21 14/30/23 10/31/24
f 10/31/24 14/30/23 15/32/25 11/33/26
f 11/33/26 15/32/25 16/34/27 12/35/28
s 3
f 1/7/14 7/1/13 13/10/29
f 13/10/29 7/1/13 14/11/30
f 14/11/30 7/1/13 15/17/31
f 15/17/31 7/1/13 16/18/32
s off
f 7/40/33 5/39/34 17/38/35 18/23/36
s 2
f 5/4/6 12/15/20 19/16/37 17/22/38
s 1
f 12/35/28 16/34/27 20/36/39 19/37/40
s 3
f 16/18/32 7/1/13 18/19/41 20/20/42
